<svg data-v-0dd9719b="" version="1.0" xmlns="http://www.w3.org/2000/svg" xmlns:xlink="http://www.w3.org/1999/xlink" width="100%" height="100%" viewBox="0 0 340.000000 250.000000" preserveAspectRatio="xMidYMid meet" color-interpolation-filters="sRGB" style="margin: auto;"> <rect data-v-0dd9719b="" x="0" y="0" width="100%" height="100%" fill="#ffffff" fill-opacity="1" class="background"></rect> <rect data-v-0dd9719b="" x="0" y="0" width="100%" height="100%" fill="url(#watermark)" fill-opacity="1" class="watermarklayer"></rect> <g data-v-0dd9719b="" fill="#860f48" class="icon-text-wrapper icon-svg-group iconsvg" transform="translate(49.019996643066406,96.62375068664551)"><g class="iconsvg-imagesvg" transform="translate(0,8.4703369140625)"><g><rect fill="#860f48" fill-opacity="0" stroke-width="2" x="0" y="0" width="60" height="39.81182278430618" class="image-rect"></rect> <svg filter="url(#colors3243920543)" x="0" y="0" width="60" height="39.81182278430618" filtersec="colorsf7266388494" class="image-svg-svg primary" style="overflow: visible;"><svg xmlns="http://www.w3.org/2000/svg" xmlns:xlink="http://www.w3.org/1999/xlink" version="1.1" x="0px" y="0px" viewBox="4.500256061553955 15.440000534057617 65.00083923339844 43.12998962402344" xml:space="preserve"><g><path d="M69.49,45.31c0.03-0.15,0-0.3-0.1-0.42c-0.09-0.11-0.24-0.18-0.39-0.18h-3.82c-0.41-1.14-1.08-2.14-2.04-2.98l-0.24-0.2   c-2.54-2.19-5.1-4.18-8.46-4.56c-0.84-0.09-1.68-0.08-2.5-0.06c-0.77,0.02-1.5,0.03-2.23-0.04L62.43,24.3   c0.46-0.44,0.71-1.04,0.71-1.67c0-0.63-0.24-1.23-0.69-1.68c-0.91-0.93-2.41-0.94-3.35-0.02L44.46,35.39   c-0.03-0.01-0.06-0.03-0.09-0.03c-0.71-0.21-1.74-0.43-2.84-0.42l9.04-15.95c0.31-0.55,0.4-1.18,0.23-1.79   c-0.17-0.61-0.57-1.13-1.12-1.44c-0.55-0.32-1.18-0.4-1.79-0.24c-0.61,0.17-1.13,0.57-1.45,1.13l-11.2,19.77   c-0.27-0.12-0.55-0.25-0.83-0.39c-0.24-0.11-0.47-0.23-0.7-0.33c-0.2-0.09-0.42-0.16-0.63-0.23c1.06-2.52,0.97-5.05,0.97-5.17   c-0.01-0.26-0.22-0.47-0.48-0.48c-0.2,0-5-0.15-7.95,2.78c-0.63,0.63-1.16,1.41-1.59,2.3c-0.27-0.37-0.55-0.73-0.86-1.05   c-2.95-2.93-7.74-2.78-7.95-2.77c-0.26,0.01-0.47,0.21-0.48,0.48c-0.01,0.15-0.12,3.56,1.6,6.4c-0.93,0.25-1.83,0.67-2.69,1.12   c-1.59,0.81-3.39,1.72-4.45,3.19c-0.54,0.73-0.8,1.59-0.77,2.44H5c-0.15,0-0.29,0.07-0.38,0.18c-0.1,0.12-0.14,0.27-0.11,0.42   c1,4.86,5.33,8.39,10.3,8.39h20.91c0.56,1.26,1.41,2.32,2.52,3.14c1.52,1.13,3.46,1.73,5.48,1.73c0.57,0,1.15-0.05,1.72-0.14   l0.15-0.03c5.5-0.91,10.26-1.69,14.54-0.16c0.69,0.24,1.44,0.14,2.06-0.29c0.62-0.42,1-1.12,1.01-1.86   c0.03-1.08-0.04-2.12-0.17-3.13C66.32,51.67,68.79,48.77,69.49,45.31z M52.29,37.91c0.25,0,0.49-0.01,0.73-0.01   c0.44,0,0.88,0.01,1.31,0.06c3.07,0.35,5.5,2.25,7.92,4.33l0.24,0.2c0.73,0.64,1.27,1.38,1.63,2.22H59.7   c-2.47-3.17-6.12-5.22-10.57-5.65c-0.83-0.08-1.63-0.08-2.42-0.05c0.12-0.03,0.23-0.06,0.34-0.1   C48.78,38.4,50.55,37.88,52.29,37.91z M10,42.86c0.93-1.27,2.62-2.13,4.11-2.89c1.42-0.74,2.83-1.39,4.27-1.21   c0.45,0.05,0.89,0.18,1.35,0.32c0.38,0.11,1.04,0.27,1.17,0.3c1.62,0.39,3.19,0.79,4.53,1.57c0.08,0.05,0.16,0.07,0.25,0.07   c0.17,0,0.34-0.09,0.43-0.25c0.14-0.24,0.06-0.54-0.18-0.68c-0.77-0.45-1.6-0.78-2.46-1.05c0.59-0.3,1.11-0.7,1.62-1.11   c0.01,0,0.06-0.04,0.08-0.06c0.29-0.23,0.59-0.46,0.89-0.67c1.96-1.34,5-1.58,7.24-0.59c0.22,0.1,1.08,0.53,1.08,0.53   c0.87,0.51,2.5,1.48,3.22,2.18c0.1,0.09,0.22,0.14,0.35,0.14s0.26-0.05,0.36-0.15c0.19-0.2,0.18-0.52-0.01-0.71   c-0.3-0.29-0.72-0.6-1.17-0.92c0.08-0.01,0.16-0.02,0.23-0.04c0.53-0.17,0.93-0.47,1.31-0.76c0.17-0.13,0.33-0.26,0.51-0.37   c1.11-0.7,2.9-0.77,4.91-0.19c0.58,0.16,1.15,0.36,1.72,0.56c0.72,0.26,1.47,0.51,2.24,0.71c-0.43,0.11-0.86,0.24-1.28,0.37   c-0.53,0.16-1.06,0.31-1.59,0.45c-0.27,0.08-0.43,0.35-0.35,0.62c0.01,0.07,0.07,0.11,0.11,0.17c-2.82,0.46-5.32,1.67-7.15,3.57   c-0.58,0.6-1.07,1.25-1.48,1.94H9.43C9.41,44.07,9.6,43.41,10,42.86z M61.62,57.13c-0.35,0.24-0.77,0.3-1.15,0.17   c-4.53-1.62-9.4-0.82-15.04,0.11l-0.15,0.03c-2.37,0.39-4.72-0.12-6.44-1.4c-1.58-1.17-2.56-2.9-2.84-5.01   c-0.38-2.81,0.51-5.5,2.51-7.57c2.17-2.25,5.38-3.49,8.96-3.49c0.51,0,1.03,0.03,1.56,0.08c9.3,0.91,13.32,8.7,13.17,16.02   C62.2,56.48,61.98,56.88,61.62,57.13z"></path><path d="M53.01,45.37c0.24,0.13,0.55,0.04,0.68-0.2c0.13-0.24,0.04-0.55-0.2-0.68c-2.36-1.28-4.94-1.81-7.26-1.47   c-2.67,0.39-4.99,1.91-6.19,4.06c-1.32,2.36-1.12,5.38,0.49,7.34c0.1,0.12,0.24,0.18,0.39,0.18c0.11,0,0.22-0.04,0.32-0.11   c0.21-0.17,0.25-0.49,0.07-0.7c-1.35-1.65-1.51-4.21-0.39-6.22c1.04-1.86,3.13-3.22,5.46-3.56C48.48,43.7,50.84,44.18,53.01,45.37z   "></path><path d="M48.93,47.1c-1.78,0.31-3.89,1.35-4.45,3.37c-0.4,1.42,0.1,2.86,0.5,4.02c0.07,0.21,0.26,0.34,0.47,0.34   c0.05,0,0.11-0.01,0.16-0.03c0.26-0.09,0.4-0.37,0.31-0.64c-0.43-1.26-0.77-2.4-0.48-3.43c0.44-1.57,2.18-2.4,3.66-2.65   c2.99-0.52,6.2,0.62,8.2,2.88c0.18,0.21,0.5,0.23,0.71,0.04c0.21-0.18,0.23-0.5,0.04-0.71C55.82,47.79,52.24,46.53,48.93,47.1z"></path></g></svg></svg> <defs><filter id="colors3243920543"><feColorMatrix type="matrix" values="0 0 0 0 0.5234375  0 0 0 0 0.05859375  0 0 0 0 0.28125  0 0 0 1 0" class="icon-fecolormatrix"></feColorMatrix></filter> <filter id="colorsf7266388494"><feColorMatrix type="matrix" values="0 0 0 0 0.99609375  0 0 0 0 0.99609375  0 0 0 0 0.99609375  0 0 0 1 0" class="icon-fecolormatrix"></feColorMatrix></filter> <filter id="colorsb255037469"><feColorMatrix type="matrix" values="0 0 0 0 0  0 0 0 0 0  0 0 0 0 0  0 0 0 1 0" class="icon-fecolormatrix"></feColorMatrix></filter></defs></g></g> <g transform="translate(67.00000381469727,0)"><g data-gra="path-name" fill-rule="" class="tp-name iconsvg-namesvg" transform="translate(0,0)"><g transform="scale(1)"><g><path d="M40.41-28.35L32.22-28.35C33.66-30.38 35.32-32.85 36.27-34.42L28.98-36.81C27.68-34.29 25.38-30.73 23.71-28.35L16.83-28.35 19.84-30.02C18.72-31.99 16.79-34.92 15.39-36.81L8.55-33.7C9.58-32.31 10.84-30.29 11.92-28.35L3.87-28.35 3.87-21.15 40.41-21.15ZM37.53-8.96L37.53-15.66 6.75-15.66 6.75-8.96ZM1.84-3.06L1.84 4.05 42.43 4.05 42.43-3.06ZM79.11-36.72L79.11-19.35C77.89-22.54 76.68-25.83 75.73-27.86L73.48-26.91 73.48-35.64 66.82-35.82 66.82-21.24C65.88-23.76 64.89-26.23 64.13-27.86L61.74-26.77 61.74-36.54 54.85-36.72 54.85-18.59C54.85-9.72 52.38-4.18 46.98 0.99L54.04 4.95C59.8-1.53 61.74-7.79 61.74-18.4L61.74-18.81C62.68-15.97 63.63-13.14 64.39-10.98L66.82-12.24 66.82 3.1 73.48 3.1 73.48-18.22C74.38-15.57 75.28-12.96 76-10.98L79.11-12.6 79.11 4.59 85.77 4.59 85.77-36.54ZM48.46-28.26C47.97-23.58 46.89-16.47 45.81-12.15L51.84-10.89C52.56-14.58 53.91-23.31 54.27-27.58ZM93.02-34.6L93.02 4.5 129.69 4.5 129.69-34.6ZM107.69-27.09L107.69-18.68 100.3-18.68 100.3-27.09ZM122.22-18.68L115.02-18.68 115.02-27.09 122.22-27.09ZM100.3-11.65L107.69-11.65 107.69-2.75 100.3-2.75ZM115.02-2.75L115.02-11.65 122.22-11.65 122.22-2.75ZM172.66-9.95C174.06-10.53 174.96-11.65 175.81-13.28 176.35-14.31 176.62-14.8 176.8-15.48L172.48-19.8C172.17-18.95 172.12-18.59 171.45-17.55 170.86-16.61 170.37-16.29 169.65-16.29 169.15-16.29 168.12-16.65 167.35-17.77 169.69-19.57 171.76-21.64 173.97-24.34L170.32-27.72 175.41-27.72 175.41-33.84 172.53-33.84C172.21-34.6 171.85-35.46 171.36-36.31L165.42-36.31C165.73-35.73 166.09-34.78 166.45-33.84L162.99-33.84C162.81-34.88 162.72-35.77 162.58-36.67L155.52-36.85 155.97-33.84 138.73-33.84 138.73-28.17C138.73-19.39 137.92-17.41 134.82-12.01L139.14-9.95 139.14-1.8 135.54-1.8 135.54 4.41 176.26 4.41 176.26-1.8 172.66-1.8ZM156.96-27.72C157.54-24.66 158.17-22.05 158.85-19.89 157.81-19.35 156.87-18.86 155.83-18.36L155.83-18.68C156.01-21.55 156.1-23.63 156.15-25.38L145.8-25.38 145.8-27.72ZM164.74-23.67C164.43-24.88 164.16-26.14 163.84-27.72L169.33-27.72C167.94-26.28 166.41-24.93 164.74-23.67ZM149.17-20.7L149.08-19.04C148.95-17.95 148.41-17.55 147.01-17.55L145.08-17.55C145.3-18.59 145.44-19.57 145.57-20.7ZM142.74-10.8C143.68-12.73 144.45-14.71 144.99-17.01L146.34-12.33 148.9-12.33C152.73-12.33 154.44-12.73 155.16-14.54L156.64-11.56C158.4-12.42 159.93-13.14 161.37-13.99 162.31-12.6 163.3-11.52 164.43-10.8ZM145.53-5.44L148.59-5.44 148.59-1.8 145.53-1.8ZM157.36-5.44L157.36-1.8 154.35-1.8 154.35-5.44ZM163.17-5.44L166.27-5.44 166.27-1.8 163.17-1.8Z" transform="translate(-1.840000033378601, 36.849998474121094)"></path></g> <!----> <!----> <!----> <!----> <!----> <!----> <!----></g></g> <g data-gra="path-slogan" fill-rule="" class="tp-slogan iconsvg-slogansvg" fill="#393458" transform="translate(21.645004272460938,47.79999923706055)"><!----> <!----> <g transform="scale(1, 1)"><g transform="scale(1)"><path d="M0.89-8.58L2.06-8.58L2.06-1.03L6.42-1.03L6.42 0L0.89 0L0.89-8.58ZM13.22 0L12.38-2.48L8.91-2.48L8.02 0L6.84 0L10.08-8.58L11.39-8.58L14.48 0L13.22 0ZM10.64-7.31L9.28-3.52L11.95-3.52L10.69-7.31L10.64-7.31ZM16.92-8.58L21.23-1.64L21.23-8.58L22.36-8.58L22.36 0L21.05 0L16.69-6.94L16.64-6.94L16.64 0L15.52 0L15.52-8.58L16.92-8.58ZM24.98-1.03L30.28-1.03L30.28 0L23.53 0L23.53-0.94L28.78-7.59L23.91-7.59L23.91-8.58L30.28-8.58L30.28-7.59L24.98-1.03ZM32.58-5.06L37.08-5.06L37.08-8.58L38.25-8.58L38.25 0L37.08 0L37.08-3.98L32.58-3.98L32.58 0L31.41 0L31.41-8.58L32.58-8.58L32.58-5.06ZM46.83-4.27L46.83-4.27Q46.64-7.64 43.83-7.83L43.83-7.83Q40.97-7.69 40.83-4.27L40.83-4.27Q40.97-0.94 43.83-0.80L43.83-0.80Q46.64-0.98 46.83-4.27ZM48-4.27L48-4.27Q47.72 0 43.83 0.14L43.83 0.14Q39.89 0 39.61-4.27L39.61-4.27Q39.84-8.72 43.83-8.81L43.83-8.81Q47.72-8.67 48-4.27ZM55.03-3.19L55.03-8.58L56.20-8.58L56.20-3.05Q56.06 0.05 52.69 0.14L52.69 0.14Q49.55 0.05 49.41-2.86L49.41-2.86L49.41-8.58L50.58-8.58L50.58-3.19Q50.63-0.84 52.73-0.80L52.73-0.80Q55.03-0.84 55.03-3.19L55.03-3.19ZM63.52-7.59L60.61-7.59L60.61-8.58L67.55-8.58L67.55-7.59L64.64-7.59L64.64 0L63.52 0L63.52-7.59ZM68.77-8.58L69.94-8.58L69.94 0L68.77 0L68.77-8.58ZM77.58 0L76.73-2.48L73.27-2.48L72.38 0L71.20 0L74.44-8.58L75.75-8.58L78.84 0L77.58 0ZM75-7.31L73.64-3.52L76.31-3.52L75.05-7.31L75-7.31ZM81.28-8.58L85.59-1.64L85.59-8.58L86.72-8.58L86.72 0L85.41 0L81.05-6.94L81-6.94L81 0L79.88 0L79.88-8.58L81.28-8.58ZM98.11-6.09L98.11-6.09L97.03-6.09Q96.94-7.73 94.88-7.83L94.88-7.83Q92.95-7.78 92.95-6.33L92.95-6.33Q92.95-5.39 93.98-5.25L93.98-5.25L96.42-4.69Q98.34-4.22 98.34-2.34L98.34-2.34Q98.30 0.05 94.97 0.14L94.97 0.14Q93.14 0.14 92.39-0.61L92.39-0.61Q91.45-1.31 91.50-2.77L91.50-2.77L92.63-2.77Q92.67-0.80 94.97-0.75L94.97-0.75Q97.22-0.80 97.27-2.20L97.27-2.20Q97.45-3.38 95.39-3.75L95.39-3.75L93.61-4.13Q91.78-4.64 91.78-6.19L91.78-6.19Q91.92-8.72 94.78-8.81L94.78-8.81Q98.02-8.81 98.11-6.09ZM100.97-5.06L105.47-5.06L105.47-8.58L106.64-8.58L106.64 0L105.47 0L105.47-3.98L100.97-3.98L100.97 0L99.80 0L99.80-8.58L100.97-8.58L100.97-5.06ZM109.73-1.03L114.89-1.03L114.89 0L108.56 0L108.56-8.58L114.80-8.58L114.80-7.59L109.73-7.59L109.73-4.92L114.42-4.92L114.42-3.89L109.73-3.89L109.73-1.03ZM117.80-8.58L122.11-1.64L122.11-8.58L123.23-8.58L123.23 0L121.92 0L117.56-6.94L117.52-6.94L117.52 0L116.39 0L116.39-8.58L117.80-8.58ZM131.44-3.61L128.81-3.61L128.81-4.59L132.56-4.59L132.56 0L131.81 0L131.53-1.08Q130.55 0.09 128.72 0.14L128.72 0.14Q126.98 0.14 126.05-0.75L126.05-0.75Q124.64-2.06 124.69-4.36L124.69-4.36Q125.02-8.63 128.77-8.81L128.77-8.81Q131.95-8.63 132.42-6L132.42-6L131.30-6Q130.83-7.78 128.72-7.83L128.72-7.83Q126.05-7.64 125.91-4.31L125.91-4.31Q125.91-0.75 128.77-0.75L128.77-0.75Q129.80-0.75 130.55-1.31L130.55-1.31Q131.48-2.06 131.44-3.61L131.44-3.61Z" transform="translate(-0.890625, 8.8125)"></path></g></g></g></g></g><defs v-gra="od"></defs></svg>